<svg width="16" height="16" viewBox="0 0 16 16" fill="none" xmlns="http://www.w3.org/2000/svg">
<path fill-rule="evenodd" clip-rule="evenodd" d="M12 8C12 8.13261 11.9473 8.25979 11.8536 8.35355C11.7598 8.44732 11.6326 8.5 11.5 8.5H5.707L7.854 10.646C7.94789 10.7399 8.00063 10.8672 8.00063 11C8.00063 11.1328 7.94789 11.2601 7.854 11.354C7.76011 11.4479 7.63278 11.5006 7.5 11.5006C7.36722 11.5006 7.23989 11.4479 7.146 11.354L4.146 8.354C4.09944 8.30755 4.06249 8.25238 4.03729 8.19163C4.01208 8.13089 3.99911 8.06577 3.99911 8C3.99911 7.93423 4.01208 7.86911 4.03729 7.80837C4.06249 7.74762 4.09944 7.69245 4.146 7.646L7.146 4.646C7.23989 4.55211 7.36722 4.49937 7.5 4.49937C7.63278 4.49937 7.76011 4.55211 7.854 4.646C7.94789 4.73989 8.00063 4.86722 8.00063 5C8.00063 5.13278 7.94789 5.26011 7.854 5.354L5.707 7.5L11.5 7.5C11.6326 7.5 11.7598 7.55268 11.8536 7.64645C11.9473 7.74021 12 7.86739 12 8Z" fill="#C7C5C9"/>
</svg>
