<svg width="20" height="20" viewBox="0 0 20 20" fill="none" xmlns="http://www.w3.org/2000/svg">
<path d="M10 11.1042L5.94792 15.1562C5.79514 15.309 5.61111 15.3837 5.39583 15.3802C5.18056 15.3767 4.99653 15.2986 4.84375 15.1458C4.69792 14.9931 4.62674 14.8108 4.63021 14.599C4.63368 14.3872 4.70833 14.2083 4.85417 14.0625L8.89584 10L4.85417 5.9375C4.70833 5.79167 4.63542 5.61285 4.63542 5.40104C4.63542 5.18923 4.70833 5.00694 4.85417 4.85417C5 4.70139 5.18056 4.62326 5.39583 4.61979C5.61111 4.61632 5.79514 4.69097 5.94792 4.84375L10 8.89583L14.0521 4.84375C14.2049 4.69097 14.3889 4.61632 14.6042 4.61979C14.8194 4.62326 15.0035 4.70139 15.1563 4.85417C15.3021 5.00694 15.3733 5.18923 15.3698 5.40104C15.3663 5.61285 15.2917 5.79167 15.1458 5.9375L11.1042 10L15.1458 14.0625C15.2917 14.2083 15.3646 14.3872 15.3646 14.599C15.3646 14.8108 15.2917 14.9931 15.1458 15.1458C15 15.2986 14.8194 15.3767 14.6042 15.3802C14.3889 15.3837 14.2049 15.309 14.0521 15.1562L10 11.1042Z" fill="#E8EAED"/>
</svg>
