<svg width="20" height="20" viewBox="0 0 20 20" fill="none" xmlns="http://www.w3.org/2000/svg">
<path d="M4.25 17.3125C3.82028 17.3125 3.45243 17.1595 3.14646 16.8535C2.84049 16.5476 2.6875 16.1797 2.6875 15.75V4.25C2.6875 3.82028 2.84049 3.45243 3.14646 3.14646C3.45243 2.84049 3.82028 2.6875 4.25 2.6875H15.75C16.1797 2.6875 16.5476 2.84049 16.8535 3.14646C17.1595 3.45243 17.3125 3.82028 17.3125 4.25V15.75C17.3125 16.1797 17.1595 16.5476 16.8535 16.8535C16.5476 17.1595 16.1797 17.3125 15.75 17.3125H4.25ZM4.37497 15.625L12.5 15.75V4.37501H4.37497V15.625Z" fill="#C7C5C9"/>
</svg>
